<mxfile host="65bd71144e">
    <diagram id="Oxyvw645GoLEwMR0K196" name="ページ1">
        <mxGraphModel dx="947" dy="815" grid="1" gridSize="10" guides="1" tooltips="1" connect="1" arrows="1" fold="1" page="1" pageScale="1" pageWidth="827" pageHeight="1169" math="0" shadow="0">
            <root>
                <mxCell id="0"/>
                <mxCell id="1" parent="0"/>
                <mxCell id="24" value="Region" style="points=[[0,0],[0.25,0],[0.5,0],[0.75,0],[1,0],[1,0.25],[1,0.5],[1,0.75],[1,1],[0.75,1],[0.5,1],[0.25,1],[0,1],[0,0.75],[0,0.5],[0,0.25]];outlineConnect=0;gradientColor=none;html=1;whiteSpace=wrap;fontSize=12;fontStyle=1;container=1;pointerEvents=0;collapsible=0;recursiveResize=0;shape=mxgraph.aws4.group;grIcon=mxgraph.aws4.group_region;strokeColor=#147EBA;fillColor=none;verticalAlign=top;align=left;spacingLeft=30;fontColor=#147EBA;dashed=1;" parent="1" vertex="1">
                    <mxGeometry x="240" y="460" width="599.75" height="330" as="geometry"/>
                </mxCell>
                <mxCell id="28" value="&lt;font color=&quot;#248814&quot;&gt;VPC&lt;/font&gt;" style="points=[[0,0],[0.25,0],[0.5,0],[0.75,0],[1,0],[1,0.25],[1,0.5],[1,0.75],[1,1],[0.75,1],[0.5,1],[0.25,1],[0,1],[0,0.75],[0,0.5],[0,0.25]];outlineConnect=0;gradientColor=none;html=1;whiteSpace=wrap;fontSize=12;fontStyle=0;container=1;pointerEvents=0;collapsible=0;recursiveResize=0;shape=mxgraph.aws4.group;grIcon=mxgraph.aws4.group_vpc;strokeColor=#248814;fillColor=none;verticalAlign=top;align=left;spacingLeft=30;fontColor=#AAB7B8;dashed=0;" parent="24" vertex="1">
                    <mxGeometry x="40" y="30" width="520" height="240" as="geometry"/>
                </mxCell>
                <mxCell id="25" value="&lt;font color=&quot;#147eba&quot;&gt;Availability zone(AZ)&lt;/font&gt;" style="sketch=0;outlineConnect=0;gradientColor=none;html=1;whiteSpace=wrap;fontSize=12;fontStyle=1;shape=mxgraph.aws4.group;grIcon=mxgraph.aws4.group_availability_zone;strokeColor=#147EBA;fillColor=none;verticalAlign=top;align=left;spacingLeft=30;fontColor=#545B64;dashed=1;" parent="28" vertex="1">
                    <mxGeometry x="40" y="40" width="440" height="180" as="geometry"/>
                </mxCell>
                <mxCell id="30" value="Private subnet" style="points=[[0,0],[0.25,0],[0.5,0],[0.75,0],[1,0],[1,0.25],[1,0.5],[1,0.75],[1,1],[0.75,1],[0.5,1],[0.25,1],[0,1],[0,0.75],[0,0.5],[0,0.25]];outlineConnect=0;gradientColor=none;html=1;whiteSpace=wrap;fontSize=12;fontStyle=0;container=1;pointerEvents=0;collapsible=0;recursiveResize=0;shape=mxgraph.aws4.group;grIcon=mxgraph.aws4.group_security_group;grStroke=0;strokeColor=#147EBA;fillColor=#E6F2F8;verticalAlign=top;align=left;spacingLeft=30;fontColor=#147EBA;dashed=0;" parent="28" vertex="1">
                    <mxGeometry x="80" y="80" width="160" height="130" as="geometry"/>
                </mxCell>
                <mxCell id="36" value="Apache" style="rounded=0;whiteSpace=wrap;html=1;strokeColor=#147EBA;fontColor=#000000;" parent="30" vertex="1">
                    <mxGeometry x="60" y="70" width="80" height="20" as="geometry"/>
                </mxCell>
                <mxCell id="29" value="Public subnet" style="points=[[0,0],[0.25,0],[0.5,0],[0.75,0],[1,0],[1,0.25],[1,0.5],[1,0.75],[1,1],[0.75,1],[0.5,1],[0.25,1],[0,1],[0,0.75],[0,0.5],[0,0.25]];outlineConnect=0;gradientColor=none;html=1;whiteSpace=wrap;fontSize=12;fontStyle=0;container=1;pointerEvents=0;collapsible=0;recursiveResize=0;shape=mxgraph.aws4.group;grIcon=mxgraph.aws4.group_security_group;grStroke=0;strokeColor=#248814;fillColor=#E9F3E6;verticalAlign=top;align=left;spacingLeft=30;fontColor=#248814;dashed=0;" parent="28" vertex="1">
                    <mxGeometry x="280" y="80" width="160" height="130" as="geometry"/>
                </mxCell>
                <mxCell id="48" style="edgeStyle=none;html=1;exitX=1;exitY=0.5;exitDx=0;exitDy=0;fontColor=#000;" parent="28" source="34" target="42" edge="1">
                    <mxGeometry relative="1" as="geometry"/>
                </mxCell>
                <mxCell id="34" value="WordPress" style="rounded=0;whiteSpace=wrap;html=1;strokeColor=#147EBA;fontColor=#000000;" parent="28" vertex="1">
                    <mxGeometry x="140" y="130" width="80" height="20" as="geometry"/>
                </mxCell>
                <mxCell id="33" value="&lt;font color=&quot;#000000&quot;&gt;Webサーバ&lt;br&gt;&lt;/font&gt;" style="rounded=0;whiteSpace=wrap;html=1;strokeColor=none;fontColor=#248814;fillColor=none;" parent="28" vertex="1">
                    <mxGeometry x="140" y="107.5" width="80" height="25" as="geometry"/>
                </mxCell>
                <mxCell id="37" value="OS" style="rounded=0;whiteSpace=wrap;html=1;strokeColor=#147EBA;fontColor=#000000;" parent="28" vertex="1">
                    <mxGeometry x="140" y="170" width="80" height="20" as="geometry"/>
                </mxCell>
                <mxCell id="38" value="OS" style="rounded=0;whiteSpace=wrap;html=1;strokeColor=#147EBA;fontColor=#000000;" parent="28" vertex="1">
                    <mxGeometry x="340" y="160" width="80" height="20" as="geometry"/>
                </mxCell>
                <mxCell id="39" value="MySQL" style="rounded=0;whiteSpace=wrap;html=1;strokeColor=#147EBA;fontColor=#000000;" parent="28" vertex="1">
                    <mxGeometry x="340" y="140" width="80" height="20" as="geometry"/>
                </mxCell>
                <mxCell id="41" value="&lt;font color=&quot;#000000&quot;&gt;DBサーバ&lt;br&gt;&lt;/font&gt;" style="rounded=0;whiteSpace=wrap;html=1;strokeColor=none;fontColor=#248814;fillColor=none;" parent="28" vertex="1">
                    <mxGeometry x="340" y="113.75" width="80" height="25" as="geometry"/>
                </mxCell>
                <mxCell id="42" value="" style="sketch=0;outlineConnect=0;fontColor=#232F3E;gradientColor=none;fillColor=#232F3D;strokeColor=none;dashed=0;verticalLabelPosition=bottom;verticalAlign=top;align=center;html=1;fontSize=12;fontStyle=0;aspect=fixed;pointerEvents=1;shape=mxgraph.aws4.traditional_server;" parent="28" vertex="1">
                    <mxGeometry x="300" y="130" width="28.85" height="50" as="geometry"/>
                </mxCell>
                <mxCell id="23" value="&lt;font color=&quot;#000000&quot;&gt;Internet&lt;br&gt;Gateway&lt;/font&gt;" style="rounded=0;whiteSpace=wrap;html=1;strokeColor=none;fontColor=#248814;fillColor=none;" parent="28" vertex="1">
                    <mxGeometry x="-40" y="170" width="80" height="35" as="geometry"/>
                </mxCell>
                <mxCell id="21" value="" style="outlineConnect=0;dashed=0;verticalLabelPosition=bottom;verticalAlign=top;align=center;html=1;shape=mxgraph.aws3.internet_gateway;fillColor=#F58534;gradientColor=none;strokeColor=#147EBA;fontColor=#248814;" parent="28" vertex="1">
                    <mxGeometry x="-20" y="125" width="40" height="40" as="geometry"/>
                </mxCell>
                <mxCell id="49" value="Amazon EC2" style="sketch=0;outlineConnect=0;fontColor=#232F3E;gradientColor=none;strokeColor=#ffffff;fillColor=#232F3E;dashed=0;verticalLabelPosition=middle;verticalAlign=bottom;align=center;html=1;whiteSpace=wrap;fontSize=10;fontStyle=1;spacing=3;shape=mxgraph.aws4.productIcon;prIcon=mxgraph.aws4.ec2;" vertex="1" parent="28">
                    <mxGeometry x="94.00000000000003" y="125" width="40" height="70" as="geometry"/>
                </mxCell>
                <mxCell id="45" value="" style="edgeStyle=none;html=1;fontColor=#000;" parent="1" source="44" target="30" edge="1">
                    <mxGeometry relative="1" as="geometry">
                        <mxPoint x="350" y="644" as="targetPoint"/>
                    </mxGeometry>
                </mxCell>
                <mxCell id="4" value="Region: 各国の地域全体" style="points=[[0,0],[0.25,0],[0.5,0],[0.75,0],[1,0],[1,0.25],[1,0.5],[1,0.75],[1,1],[0.75,1],[0.5,1],[0.25,1],[0,1],[0,0.75],[0,0.5],[0,0.25]];outlineConnect=0;gradientColor=none;html=1;whiteSpace=wrap;fontSize=12;fontStyle=1;container=1;pointerEvents=0;collapsible=0;recursiveResize=0;shape=mxgraph.aws4.group;grIcon=mxgraph.aws4.group_region;strokeColor=#147EBA;fillColor=none;verticalAlign=top;align=left;spacingLeft=30;fontColor=#147EBA;dashed=1;" parent="1" vertex="1">
                    <mxGeometry x="80" y="80" width="760" height="300" as="geometry"/>
                </mxCell>
                <mxCell id="6" value="&lt;font color=&quot;#147eba&quot;&gt;Availability zone(AZ)&lt;/font&gt;" style="sketch=0;outlineConnect=0;gradientColor=none;html=1;whiteSpace=wrap;fontSize=12;fontStyle=1;shape=mxgraph.aws4.group;grIcon=mxgraph.aws4.group_availability_zone;strokeColor=#147EBA;fillColor=none;verticalAlign=top;align=left;spacingLeft=30;fontColor=#545B64;dashed=1;" parent="4" vertex="1">
                    <mxGeometry x="400" y="80" width="300" height="180" as="geometry"/>
                </mxCell>
                <mxCell id="5" value="&lt;font color=&quot;#147eba&quot;&gt;Availability zone(AZ): &lt;br&gt;&amp;nbsp;Regionを細かくしたデータセンターの集まり&lt;/font&gt;" style="sketch=0;outlineConnect=0;gradientColor=none;html=1;whiteSpace=wrap;fontSize=12;fontStyle=1;shape=mxgraph.aws4.group;grIcon=mxgraph.aws4.group_availability_zone;strokeColor=#147EBA;fillColor=none;verticalAlign=top;align=left;spacingLeft=30;fontColor=#545B64;dashed=1;" parent="4" vertex="1">
                    <mxGeometry x="60" y="80" width="300" height="180" as="geometry"/>
                </mxCell>
                <mxCell id="8" value="&lt;font color=&quot;#000000&quot;&gt;Subnet:&lt;br&gt;- VPCを細かくしたもの&lt;br&gt;- AZをまたがることで可用性が高まる&lt;br&gt;&lt;/font&gt;" style="sketch=0;outlineConnect=0;gradientColor=none;html=1;whiteSpace=wrap;fontSize=12;fontStyle=0;shape=mxgraph.aws4.group;grIcon=mxgraph.aws4.group_subnet;strokeColor=#879196;fillColor=none;verticalAlign=top;align=left;spacingLeft=30;fontColor=#879196;dashed=0;" parent="4" vertex="1">
                    <mxGeometry x="80" y="120" width="260" height="130" as="geometry"/>
                </mxCell>
                <mxCell id="18" value="&lt;font color=&quot;#248814&quot;&gt;VPC(Virtual Private Network): 外部から分離された仮想ネットワーク&lt;/font&gt;" style="points=[[0,0],[0.25,0],[0.5,0],[0.75,0],[1,0],[1,0.25],[1,0.5],[1,0.75],[1,1],[0.75,1],[0.5,1],[0.25,1],[0,1],[0,0.75],[0,0.5],[0,0.25]];outlineConnect=0;gradientColor=none;html=1;whiteSpace=wrap;fontSize=12;fontStyle=0;container=1;pointerEvents=0;collapsible=0;recursiveResize=0;shape=mxgraph.aws4.group;grIcon=mxgraph.aws4.group_vpc;strokeColor=#248814;fillColor=none;verticalAlign=top;align=left;spacingLeft=30;fontColor=#AAB7B8;dashed=0;" parent="4" vertex="1">
                    <mxGeometry x="40" y="40" width="680" height="240" as="geometry"/>
                </mxCell>
                <mxCell id="19" value="Public subnet:&amp;nbsp;&lt;br&gt;&amp;nbsp; サーバ等を置いてインターネットと通信する" style="points=[[0,0],[0.25,0],[0.5,0],[0.75,0],[1,0],[1,0.25],[1,0.5],[1,0.75],[1,1],[0.75,1],[0.5,1],[0.25,1],[0,1],[0,0.75],[0,0.5],[0,0.25]];outlineConnect=0;gradientColor=none;html=1;whiteSpace=wrap;fontSize=12;fontStyle=0;container=1;pointerEvents=0;collapsible=0;recursiveResize=0;shape=mxgraph.aws4.group;grIcon=mxgraph.aws4.group_security_group;grStroke=0;strokeColor=#248814;fillColor=#E9F3E6;verticalAlign=top;align=left;spacingLeft=30;fontColor=#248814;dashed=0;" parent="18" vertex="1">
                    <mxGeometry x="380" y="80" width="130" height="130" as="geometry"/>
                </mxCell>
                <mxCell id="20" value="Private subnet:&lt;br&gt;&amp;nbsp; DB等を置いてAZ内のみ通信する" style="points=[[0,0],[0.25,0],[0.5,0],[0.75,0],[1,0],[1,0.25],[1,0.5],[1,0.75],[1,1],[0.75,1],[0.5,1],[0.25,1],[0,1],[0,0.75],[0,0.5],[0,0.25]];outlineConnect=0;gradientColor=none;html=1;whiteSpace=wrap;fontSize=12;fontStyle=0;container=1;pointerEvents=0;collapsible=0;recursiveResize=0;shape=mxgraph.aws4.group;grIcon=mxgraph.aws4.group_security_group;grStroke=0;strokeColor=#147EBA;fillColor=#E6F2F8;verticalAlign=top;align=left;spacingLeft=30;fontColor=#147EBA;dashed=0;" parent="4" vertex="1">
                    <mxGeometry x="560" y="120" width="130" height="130" as="geometry"/>
                </mxCell>
                <mxCell id="13" value="ネットワーク概念図" style="rounded=0;whiteSpace=wrap;html=1;strokeColor=#147EBA;fontColor=#000000;" parent="1" vertex="1">
                    <mxGeometry x="40" y="30" width="160" height="30" as="geometry"/>
                </mxCell>
                <mxCell id="14" value="構成図具体例" style="rounded=0;whiteSpace=wrap;html=1;strokeColor=#147EBA;fontColor=#000000;" parent="1" vertex="1">
                    <mxGeometry x="40" y="410" width="160" height="30" as="geometry"/>
                </mxCell>
                <mxCell id="44" value="Internet" style="sketch=0;outlineConnect=0;fontColor=#232F3E;gradientColor=none;strokeColor=#232F3E;fillColor=#ffffff;dashed=0;verticalLabelPosition=bottom;verticalAlign=top;align=center;html=1;fontSize=12;fontStyle=0;aspect=fixed;shape=mxgraph.aws4.resourceIcon;resIcon=mxgraph.aws4.internet;" parent="1" vertex="1">
                    <mxGeometry x="80" y="605" width="60" height="60" as="geometry"/>
                </mxCell>
            </root>
        </mxGraphModel>
    </diagram>
</mxfile>